<svg xmlns="http://www.w3.org/2000/svg" viewBox="0 0 951.44 951.44"><defs><style>      .cls-1 {        isolation: isolate;      }      .cls-2 {        fill: #6038e8;        mix-blend-mode: multiply;        stroke-width: 0px;      }    </style></defs><g class="cls-1"><g id="Camada_2" data-name="Camada 2"><g id="Camada_1-2" data-name="Camada 1"><path class="cls-2" d="m318.08,0h315.28c25.23,0,49.43,10.02,67.28,27.87l222.94,222.94c17.84,17.84,27.87,42.04,27.87,67.28v315.28c0,25.23-10.02,49.43-27.87,67.28l-222.94,222.94c-17.84,17.84-42.04,27.87-67.28,27.87h-315.28c-25.23,0-49.43-10.02-67.28-27.87L27.87,700.64C10.02,682.8,0,658.6,0,633.36v-315.28c0-25.23,10.02-49.43,27.87-67.28L250.8,27.87C268.65,10.02,292.85,0,318.08,0Z"></path></g></g></g></svg>