<svg xmlns="http://www.w3.org/2000/svg" width="417" height="746" viewBox="0 0 417 746" fill="none"><g style="mix-blend-mode:multiply"><path d="M701.27 -50H303.254C275.78 -50 253.508 -27.7279 253.508 -0.253944V397.762C253.508 425.236 275.78 447.508 303.254 447.508H701.27C728.744 447.508 751.016 425.236 751.016 397.762V-0.253944C751.016 -27.7279 728.744 -50 701.27 -50Z" fill="#3DCBFF"></path></g><g style="mix-blend-mode:multiply"><path d="M331.183 248.492H166.325C153.128 248.495 140.473 253.739 131.143 263.072L14.5014 379.635C5.20192 388.981 -0.0128991 401.632 2.39617e-05 414.817V579.707C0.00383968 592.9 5.24183 605.553 14.5644 614.888L131.206 731.53C140.542 740.853 153.194 746.091 166.388 746.094H331.183C344.377 746.091 357.029 740.853 366.365 731.53L483.007 614.888C492.339 605.558 497.584 592.903 497.587 579.707V414.817C497.584 401.62 492.339 388.965 483.007 379.635L366.365 263.072C357.035 253.739 344.38 248.495 331.183 248.492Z" fill="#AD36FF"></path></g></svg>